<?xml version="1.0" encoding="UTF-8" standalone="no"?>
<!-- Created with Inkscape (http://www.inkscape.org/) -->

<svg
   xmlns:dc="http://purl.org/dc/elements/1.1/"
   xmlns:cc="http://creativecommons.org/ns#"
   xmlns:rdf="http://www.w3.org/1999/02/22-rdf-syntax-ns#"
   xmlns:svg="http://www.w3.org/2000/svg"
   xmlns="http://www.w3.org/2000/svg"
   xmlns:sodipodi="http://sodipodi.sourceforge.net/DTD/sodipodi-0.dtd"
   xmlns:inkscape="http://www.inkscape.org/namespaces/inkscape"
   id="svg2"
   version="1.1"
   inkscape:version="0.91 r13725"
   xml:space="preserve"
   width="13.994622"
   height="14.006728"
   viewBox="0 0 13.994622 14.006728"
   sodipodi:docname="insta-square.svg"><metadata
     id="metadata8"><rdf:RDF><cc:Work
         rdf:about=""><dc:format>image/svg+xml</dc:format><dc:type
           rdf:resource="http://purl.org/dc/dcmitype/StillImage" /><dc:title></dc:title></cc:Work></rdf:RDF></metadata><defs
     id="defs6" /><sodipodi:namedview
     pagecolor="#ffffff"
     bordercolor="#666666"
     borderopacity="1"
     objecttolerance="10"
     gridtolerance="10"
     guidetolerance="10"
     inkscape:pageopacity="0"
     inkscape:pageshadow="2"
     inkscape:window-width="1536"
     inkscape:window-height="799"
     id="namedview4"
     showgrid="false"
     inkscape:zoom="10.488307"
     inkscape:cx="-1.6344322"
     inkscape:cy="8.2004835"
     inkscape:window-x="-8"
     inkscape:window-y="-8"
     inkscape:window-maximized="1"
     inkscape:current-layer="g10"
     fit-margin-top="0"
     fit-margin-left="0"
     fit-margin-right="0"
     fit-margin-bottom="0" /><g
     id="g10"
     inkscape:groupmode="layer"
     inkscape:label="Vector Smart Object5"
     transform="matrix(1.25,0,0,-1.25,0.59699326,13.344759)"><g
       id="g12"
       style="stroke:#b94a48;stroke-opacity:1"
       transform="matrix(0.5893093,0,0,0.58972594,-0.18293996,-0.23471226)"><g
         id="g14"
         style="stroke:#b94a48;stroke-opacity:1"><g
           id="g20"
           style="stroke:#b94a48;stroke-opacity:1"><g
             id="g22"
             style="stroke:#b94a48;stroke-opacity:1"><path
               d="m 9,18.001 c -2.443,0 -2.751,-0.011 -3.71,-0.055 l 0,0 C 4.332,17.904 3.678,17.751 3.105,17.528 l 0,0 C 2.513,17.298 2.012,16.99 1.511,16.49 l 0,0 C 1.012,15.99 0.703,15.488 0.473,14.897 l 0,0 C 0.25,14.324 0.098,13.669 0.055,12.712 l 0,0 C 0.01,11.751 0,11.445 0,9.001 l 0,0 C 0,6.557 0.01,6.25 0.054,5.29 l 0,0 C 0.097,4.332 0.25,3.678 0.473,3.106 l 0,0 C 0.702,2.514 1.01,2.012 1.51,1.511 l 0,0 c 0.5,-0.5 1.002,-0.809 1.594,-1.038 l 0,0 C 3.677,0.25 4.331,0.099 5.289,0.055 l 0,0 C 6.248,0.011 6.556,0 8.999,0 l 0,0 c 2.444,0 2.751,0.011 3.71,0.055 l 0,0 c 0.958,0.044 1.611,0.195 2.185,0.418 l 0,0 c 0.592,0.229 1.094,0.538 1.594,1.038 l 0,0 c 0.5,0.501 0.808,1.003 1.038,1.595 l 0,0 c 0.223,0.571 0.374,1.226 0.417,2.184 l 0,0 c 0.045,0.96 0.055,1.267 0.055,3.711 l 0,0 c 0,2.443 -0.01,2.75 -0.055,3.709 l 0,0 c -0.043,0.959 -0.195,1.613 -0.417,2.186 l 0,0 c -0.23,0.591 -0.538,1.093 -1.038,1.593 l 0,0 c -0.5,0.5 -1.002,0.809 -1.594,1.038 l 0,0 c -0.571,0.223 -1.227,0.375 -2.185,0.418 l 0,0 C 11.751,17.99 11.443,18.001 9,18.001 Z M 5.363,1.673 C 4.486,1.713 4.009,1.86 3.692,1.984 l 0,0 C 3.272,2.147 2.972,2.343 2.657,2.657 l 0,0 C 2.342,2.973 2.147,3.272 1.984,3.693 l 0,0 C 1.861,4.01 1.714,4.486 1.674,5.363 l 0,0 C 1.631,6.313 1.622,6.598 1.622,9.001 l 0,0 c 0,2.402 0.009,2.687 0.052,3.637 l 0,0 c 0.04,0.876 0.187,1.353 0.31,1.669 l 0,0 c 0.163,0.422 0.358,0.721 0.673,1.036 l 0,0 c 0.315,0.315 0.615,0.511 1.035,0.673 l 0,0 c 0.317,0.124 0.794,0.27 1.671,0.31 l 0,0 C 6.312,16.37 6.597,16.38 9,16.38 l 0,0 c 2.402,0 2.687,-0.01 3.637,-0.054 l 0,0 c 0.877,-0.04 1.354,-0.186 1.671,-0.31 l 0,0 c 0.421,-0.163 0.719,-0.358 1.035,-0.673 l 0,0 c 0.315,-0.315 0.511,-0.614 0.673,-1.036 l 0,0 c 0.123,-0.316 0.27,-0.793 0.31,-1.669 l 0,0 c 0.043,-0.95 0.052,-1.235 0.052,-3.637 l 0,0 c 0,-2.403 -0.009,-2.688 -0.052,-3.638 l 0,0 C 16.286,4.486 16.139,4.01 16.016,3.693 l 0,0 C 15.852,3.272 15.658,2.973 15.343,2.657 l 0,0 C 15.027,2.344 14.729,2.147 14.308,1.984 l 0,0 C 13.991,1.861 13.515,1.713 12.637,1.673 l 0,0 C 11.687,1.63 11.404,1.621 9,1.621 l 0,0 c -2.404,0 -2.688,0.009 -3.637,0.052 m 7.361,12.133 c 0,-0.598 0.484,-1.08 1.081,-1.08 l 0,0 c 0.595,0 1.079,0.482 1.079,1.08 l 0,0 c 0,0.596 -0.484,1.08 -1.079,1.08 l 0,0 c -0.597,0 -1.081,-0.483 -1.081,-1.08 M 4.378,9.001 C 4.378,6.448 6.447,4.378 9,4.378 l 0,0 c 2.552,0 4.622,2.07 4.622,4.623 l 0,0 c 0,2.552 -2.07,4.621 -4.622,4.621 l 0,0 c -2.553,0 -4.622,-2.069 -4.622,-4.621 m 1.622,0 c 0,1.657 1.343,3 3,3 l 0,0 c 1.657,0 3,-1.343 3,-3 l 0,0 c 0,-1.656 -1.343,-3 -3,-3 l 0,0 c -1.657,0 -3,1.344 -3,3"
               style="fill:#b94a48;stroke:#b94a48;stroke-opacity:1"
               id="path34"
               inkscape:connector-curvature="0" /></g></g></g></g></g></svg>