<?xml version="1.0" encoding="UTF-8" standalone="no"?>
<svg
   xmlns:dc="http://purl.org/dc/elements/1.1/"
   xmlns:cc="http://creativecommons.org/ns#"
   xmlns:rdf="http://www.w3.org/1999/02/22-rdf-syntax-ns#"
   xmlns:svg="http://www.w3.org/2000/svg"
   xmlns="http://www.w3.org/2000/svg"
   xmlns:sodipodi="http://sodipodi.sourceforge.net/DTD/sodipodi-0.dtd"
   xmlns:inkscape="http://www.inkscape.org/namespaces/inkscape"
   enable-background="new 0 0 30 30"
   height="15"
   id="Odnoklassniki"
   version="1.1"
   viewBox="0 0 9 15"
   width="9"
   xml:space="preserve"
   inkscape:version="0.91 r13725"
   sodipodi:docname="odn-square_h.svg"><metadata
     id="metadata9"><rdf:RDF><cc:Work
         rdf:about=""><dc:format>image/svg+xml</dc:format><dc:type
           rdf:resource="http://purl.org/dc/dcmitype/StillImage" /><dc:title></dc:title></cc:Work></rdf:RDF></metadata><defs
     id="defs7" /><sodipodi:namedview
     pagecolor="#ffffff"
     bordercolor="#666666"
     borderopacity="1"
     objecttolerance="10"
     gridtolerance="10"
     guidetolerance="10"
     inkscape:pageopacity="0"
     inkscape:pageshadow="2"
     inkscape:window-width="1536"
     inkscape:window-height="799"
     id="namedview5"
     showgrid="false"
     fit-margin-top="0"
     fit-margin-left="0"
     fit-margin-right="0"
     fit-margin-bottom="0"
     inkscape:zoom="7.8666667"
     inkscape:cx="-28.881356"
     inkscape:cy="4.8305085"
     inkscape:window-x="-8"
     inkscape:window-y="-8"
     inkscape:window-maximized="1"
     inkscape:current-layer="Odnoklassniki" /><path
     d="M 8,7.5 C 7.5,7.5 6.5,8.4999999 4.5,8.4999999 2.5,8.4999999 1.5,7.5 0.99999997,7.5 0.44799999,7.5 0,7.948 0,8.4999999 0,9.0000001 0.284,9.2405 0.5,9.367 1.0925,9.7134999 3,10.500001 3,10.500001 L 0.87500001,13.219 C 0.87500001,13.219 0.5,13.686499 0.5,14.000001 0.5,14.552001 0.94800001,15 1.5,15 c 0.5105,0 0.7420001,-0.327999 0.7420001,-0.327999 0,0 2.2544999,-2.675502 2.2579999,-2.672 0.0035,-0.0036 2.2579999,2.672 2.2579999,2.672 C 6.7579999,14.672001 6.9895,15 7.5,15 c 0.5520001,0 1,-0.447999 1,-0.999999 C 8.5,13.686499 8.125,13.219 8.125,13.219 L 6,10.500001 c 0,0 1.9075,-0.7865011 2.5,-1.133001 C 8.716,9.2405 9,9.0000001 9,8.4999999 9,7.948 8.552,7.5 8,7.5 Z"
     id="K"
     style="fill:#f2720c;fill-opacity:1"
     inkscape:connector-curvature="0" /><path
     d="M 4.5,0 C 2.5670001,0 0.99999997,1.567 0.99999997,3.5 0.99999997,5.4330001 2.5670001,7 4.5,7 6.4325001,7 8,5.4330001 8,3.5 8,1.567 6.4325001,0 4.5,0 Z m 0,5.25 C 3.5335,5.25 2.7500001,4.467 2.7500001,3.5 2.7500001,2.5335 3.5335,1.7499999 4.5,1.7499999 5.466,1.7499999 6.2499999,2.5335 6.2499999,3.5 6.2499999,4.467 5.466,5.25 4.5,5.25 Z"
     id="O"
     style="fill:#f2720c;fill-opacity:1"
     inkscape:connector-curvature="0" /></svg>