<?xml version="1.0" encoding="UTF-8" standalone="no"?>
<!-- Created with Inkscape (http://www.inkscape.org/) -->

<svg
   xmlns:dc="http://purl.org/dc/elements/1.1/"
   xmlns:cc="http://creativecommons.org/ns#"
   xmlns:rdf="http://www.w3.org/1999/02/22-rdf-syntax-ns#"
   xmlns:svg="http://www.w3.org/2000/svg"
   xmlns="http://www.w3.org/2000/svg"
   xmlns:sodipodi="http://sodipodi.sourceforge.net/DTD/sodipodi-0.dtd"
   xmlns:inkscape="http://www.inkscape.org/namespaces/inkscape"
   id="svg2"
   version="1.1"
   inkscape:version="0.91 r13725"
   xml:space="preserve"
   width="17"
   height="10"
   viewBox="0 0 17 10"
   sodipodi:docname="vk-square_h.svg"><metadata
     id="metadata8"><rdf:RDF><cc:Work
         rdf:about=""><dc:format>image/svg+xml</dc:format><dc:type
           rdf:resource="http://purl.org/dc/dcmitype/StillImage" /><dc:title></dc:title></cc:Work></rdf:RDF></metadata><defs
     id="defs6"><clipPath
       clipPathUnits="userSpaceOnUse"
       id="clipPath16"><path
         d="m 0,21.403 37.512,0 L 37.512,0 0,0 0,21.403 Z"
         id="path18"
         inkscape:connector-curvature="0" /></clipPath></defs><sodipodi:namedview
     pagecolor="#ffffff"
     bordercolor="#666666"
     borderopacity="1"
     objecttolerance="10"
     gridtolerance="10"
     guidetolerance="10"
     inkscape:pageopacity="0"
     inkscape:pageshadow="2"
     inkscape:window-width="1536"
     inkscape:window-height="799"
     id="namedview4"
     showgrid="false"
     inkscape:zoom="8.1041381"
     inkscape:cx="-13.326525"
     inkscape:cy="13.377063"
     inkscape:window-x="-8"
     inkscape:window-y="-8"
     inkscape:window-maximized="1"
     inkscape:current-layer="g10" /><g
     id="g10"
     inkscape:groupmode="layer"
     inkscape:label="Vector Smart Object3"
     transform="matrix(1.25,0,0,-1.25,0,9.9999994)"
     style="display:inline"><g
       id="g12"
       style="fill:#4c75a3;fill-opacity:1"
       transform="matrix(0.36316298,0,0,0.37272806,0,2.6110617e-4)"><g
         id="g14"
         clip-path="url(#clipPath16)"
         style="fill:#4c75a3;fill-opacity:1"><g
           id="g20"
           transform="translate(34.5293,14.1123)"
           style="fill:#4c75a3;fill-opacity:1"><path
             d="m 0,0 c -3.789,-5.039 -4.199,-4.569 -1.074,-7.479 3.008,-2.793 3.633,-4.142 3.73,-4.317 0,0 1.25,-2.187 -1.387,-2.207 l -5,-0.078 c -1.074,-0.215 -2.5,0.763 -2.5,0.763 -1.875,1.289 -3.633,4.629 -5,4.198 0,0 -1.406,-0.448 -1.367,-3.457 0.02,-0.645 -0.293,-0.995 -0.293,-0.995 0,0 -0.352,-0.371 -1.035,-0.431 l -2.246,0 c -4.941,-0.312 -9.297,4.238 -9.297,4.238 0,0 -4.765,4.921 -8.944,14.745 -0.273,0.645 0.02,0.957 0.02,0.957 0,0 0.292,0.373 1.113,0.373 l 5.352,0.039 c 0.507,-0.079 0.858,-0.353 0.858,-0.353 0,0 0.313,-0.215 0.469,-0.625 0.879,-2.187 2.012,-4.18 2.012,-4.18 1.953,-4.023 3.281,-4.707 4.043,-4.296 0,0 0.996,0.604 0.781,5.468 -0.078,1.758 -0.566,2.559 -0.566,2.559 -0.449,0.605 -1.289,0.781 -1.66,0.841 -0.293,0.038 0.195,0.741 0.84,1.054 0.957,0.469 2.656,0.489 4.668,0.469 1.582,-0.019 2.031,-0.117 2.636,-0.254 1.855,-0.449 1.23,-2.168 1.23,-6.308 0,-1.328 -0.254,-3.185 0.703,-3.789 0.41,-0.274 1.426,-0.039 3.926,4.218 0,0 1.172,2.032 2.09,4.395 0.156,0.431 0.488,0.605 0.488,0.605 0,0 0.313,0.176 0.742,0.118 L 0.957,6.31 C 2.656,6.524 2.93,5.743 2.93,5.743 3.223,4.941 2.305,3.066 0,0"
             style="fill:#4c75a3;fill-opacity:1;fill-rule:nonzero;stroke:none"
             id="path22"
             inkscape:connector-curvature="0" /></g></g></g></g></svg>